<svg width="130" height="109" viewBox="0 0 130 109" fill="none" xmlns="http://www.w3.org/2000/svg">
    <mask id="mask0_442_221" style="mask-type:alpha" maskUnits="userSpaceOnUse" x="-1" y="0" width="132" height="110">
        <path d="M5.75699 108L22.5406 67.3894H30.7172L48.1464 27.6338L56.7534 26.7788L67.5121 1.13L89.4599 52.8551L100.219 54.565L105.598 72.9466L122.382 88.7634L126.04 108" fill="white"/>
        <path d="M45.1339 108L47.716 98.8092L52.4499 90.0458L55.032 75.939L58.6899 67.1757L58.0444 50.9314L64.93 34.9009L67.5121 1.13" fill="white"/>
        <path d="M5.75699 108L22.5406 67.3894H30.7172L48.1464 27.6338L56.7534 26.7788L67.5121 1.13M67.5121 1.13L89.4599 52.8551L100.219 54.565L105.598 72.9466L122.382 88.7634L126.04 108M67.5121 1.13L64.93 34.9009L58.0444 50.9314L58.6899 67.1757L55.032 75.939L52.4499 90.0458L47.716 98.8092L45.1339 108M0.807983 108H129.052" stroke="#2F2F2F" stroke-width="2" stroke-miterlimit="10" stroke-linecap="round" stroke-linejoin="round"/>
    </mask>
    <g mask="url(#mask0_442_221)">
        <path d="M4.40631 1.84972V108H124.95V76.7236V45.4472V17.0141V1.84972H4.40631Z" fill="white"/>
        <rect id="fill" width="130" />
        <path d="M67.5121 1.13L56.7534 26.7788L48.1464 27.6338L30.7172 67.3894H22.5406L5.75699 108H126.04L122.382 88.7634L105.598 72.9466L100.219 54.565L89.4599 52.8551L67.5121 1.13ZM67.5121 1.13L64.93 34.9009L58.0444 50.9314L58.6899 67.1757L55.032 75.939L52.4499 90.0458L47.716 98.8092L45.1339 108" stroke="#2F2F2F" stroke-width="2" stroke-miterlimit="10" stroke-linecap="round" stroke-linejoin="round"/>
    </g>
</svg>
